<mxfile host="app.diagrams.net" agent="Mozilla/5.0 (Windows NT 10.0; Win64; x64) AppleWebKit/537.36 (KHTML, like Gecko) Chrome/128.0.0.0 Safari/537.36" version="24.7.7" pages="2">
  <diagram name="upload" id="DGoV4dfiXk2cRcANRBJT">
    <mxGraphModel dx="1147" dy="590" grid="1" gridSize="10" guides="1" tooltips="1" connect="1" arrows="1" fold="1" page="1" pageScale="1" pageWidth="850" pageHeight="1100" math="0" shadow="0">
      <root>
        <mxCell id="0" />
        <mxCell id="1" parent="0" />
        <mxCell id="fpQUTFpRcy_hL1QXhQL6-11" value="" style="group" vertex="1" connectable="0" parent="1">
          <mxGeometry x="260" y="360" width="270" height="200" as="geometry" />
        </mxCell>
        <mxCell id="fpQUTFpRcy_hL1QXhQL6-8" value="SW repo" style="rounded=0;whiteSpace=wrap;html=1;dashed=1;dashPattern=8 8;verticalAlign=top;" vertex="1" parent="fpQUTFpRcy_hL1QXhQL6-11">
          <mxGeometry width="270" height="200" as="geometry" />
        </mxCell>
        <mxCell id="fpQUTFpRcy_hL1QXhQL6-1" value="catalog svc" style="rounded=0;whiteSpace=wrap;html=1;" vertex="1" parent="fpQUTFpRcy_hL1QXhQL6-11">
          <mxGeometry x="34.99857142857144" y="49.99777777777777" width="88.57142857142857" height="54.44444444444444" as="geometry" />
        </mxCell>
        <mxCell id="fpQUTFpRcy_hL1QXhQL6-2" value="seaweedfs" style="rounded=0;whiteSpace=wrap;html=1;labelBackgroundColor=none;textShadow=0;labelBorderColor=none;fillColor=#B3B3B3;" vertex="1" parent="fpQUTFpRcy_hL1QXhQL6-11">
          <mxGeometry x="35.002857142857124" y="129.99888888888893" width="88.57142857142857" height="54.44444444444444" as="geometry" />
        </mxCell>
        <mxCell id="fpQUTFpRcy_hL1QXhQL6-3" value="image registry" style="rounded=0;whiteSpace=wrap;html=1;" vertex="1" parent="fpQUTFpRcy_hL1QXhQL6-11">
          <mxGeometry x="150.00285714285712" y="129.9966666666666" width="88.57142857142857" height="54.44444444444444" as="geometry" />
        </mxCell>
        <mxCell id="fpQUTFpRcy_hL1QXhQL6-12" value="" style="group" vertex="1" connectable="0" parent="1">
          <mxGeometry x="260" y="90" width="270" height="200" as="geometry" />
        </mxCell>
        <mxCell id="fpQUTFpRcy_hL1QXhQL6-13" value="SAAS" style="rounded=0;whiteSpace=wrap;html=1;dashed=1;dashPattern=8 8;verticalAlign=top;" vertex="1" parent="fpQUTFpRcy_hL1QXhQL6-12">
          <mxGeometry width="270" height="200" as="geometry" />
        </mxCell>
        <mxCell id="fpQUTFpRcy_hL1QXhQL6-14" value="catalog svc" style="rounded=0;whiteSpace=wrap;html=1;" vertex="1" parent="fpQUTFpRcy_hL1QXhQL6-12">
          <mxGeometry x="29.998571428571438" y="82.77777777777777" width="88.57142857142857" height="54.44444444444444" as="geometry" />
        </mxCell>
        <mxCell id="fpQUTFpRcy_hL1QXhQL6-15" value="seaweedfs" style="rounded=0;whiteSpace=wrap;html=1;labelBackgroundColor=none;textShadow=0;labelBorderColor=none;fillColor=#FFFFFF;" vertex="1" parent="fpQUTFpRcy_hL1QXhQL6-12">
          <mxGeometry x="150.00285714285712" y="39.99888888888893" width="88.57142857142857" height="54.44444444444444" as="geometry" />
        </mxCell>
        <mxCell id="fpQUTFpRcy_hL1QXhQL6-16" value="image registry" style="rounded=0;whiteSpace=wrap;html=1;" vertex="1" parent="fpQUTFpRcy_hL1QXhQL6-12">
          <mxGeometry x="150.00285714285712" y="129.9966666666666" width="88.57142857142857" height="54.44444444444444" as="geometry" />
        </mxCell>
        <mxCell id="fpQUTFpRcy_hL1QXhQL6-17" value="" style="shape=flexArrow;endArrow=classic;html=1;rounded=0;fontFamily=Helvetica;fontSize=12;fontColor=default;entryX=0;entryY=0.5;entryDx=0;entryDy=0;" edge="1" parent="1" target="fpQUTFpRcy_hL1QXhQL6-14">
          <mxGeometry width="50" height="50" relative="1" as="geometry">
            <mxPoint x="130" y="200" as="sourcePoint" />
            <mxPoint x="260" y="200" as="targetPoint" />
          </mxGeometry>
        </mxCell>
        <mxCell id="fpQUTFpRcy_hL1QXhQL6-18" value="upload&amp;nbsp;&lt;div&gt;API&lt;/div&gt;" style="edgeLabel;html=1;align=center;verticalAlign=middle;resizable=0;points=[];rounded=0;dashed=1;dashPattern=8 8;strokeColor=default;fontFamily=Helvetica;fontSize=12;fontColor=default;fillColor=default;" vertex="1" connectable="0" parent="fpQUTFpRcy_hL1QXhQL6-17">
          <mxGeometry x="-0.2831" y="3" relative="1" as="geometry">
            <mxPoint as="offset" />
          </mxGeometry>
        </mxCell>
        <mxCell id="fpQUTFpRcy_hL1QXhQL6-20" value="" style="shape=flexArrow;endArrow=classic;html=1;rounded=0;fontFamily=Helvetica;fontSize=12;fontColor=default;entryX=0.397;entryY=0.029;entryDx=0;entryDy=0;entryPerimeter=0;" edge="1" parent="1" target="fpQUTFpRcy_hL1QXhQL6-1">
          <mxGeometry width="50" height="50" relative="1" as="geometry">
            <mxPoint x="330.94" y="290" as="sourcePoint" />
            <mxPoint x="330" y="420" as="targetPoint" />
          </mxGeometry>
        </mxCell>
        <mxCell id="fpQUTFpRcy_hL1QXhQL6-23" value="NATs message" style="edgeLabel;html=1;align=center;verticalAlign=middle;resizable=0;points=[];rounded=0;dashed=1;dashPattern=8 8;strokeColor=default;fontFamily=Helvetica;fontSize=12;fontColor=default;fillColor=default;" vertex="1" connectable="0" parent="fpQUTFpRcy_hL1QXhQL6-20">
          <mxGeometry x="-0.2211" y="8" relative="1" as="geometry">
            <mxPoint as="offset" />
          </mxGeometry>
        </mxCell>
        <mxCell id="fpQUTFpRcy_hL1QXhQL6-22" value="external registry" style="rounded=0;whiteSpace=wrap;html=1;" vertex="1" parent="1">
          <mxGeometry x="590.0028571428571" y="249.9966666666666" width="88.57142857142857" height="54.44444444444444" as="geometry" />
        </mxCell>
        <mxCell id="fpQUTFpRcy_hL1QXhQL6-25" style="edgeStyle=orthogonalEdgeStyle;rounded=0;orthogonalLoop=1;jettySize=auto;html=1;exitX=1;exitY=0.5;exitDx=0;exitDy=0;entryX=0.5;entryY=1;entryDx=0;entryDy=0;fontFamily=Helvetica;fontSize=12;fontColor=default;" edge="1" parent="1" source="fpQUTFpRcy_hL1QXhQL6-1" target="fpQUTFpRcy_hL1QXhQL6-22">
          <mxGeometry relative="1" as="geometry" />
        </mxCell>
        <mxCell id="fpQUTFpRcy_hL1QXhQL6-26" value="download image" style="edgeLabel;html=1;align=center;verticalAlign=middle;resizable=0;points=[];rounded=0;dashed=1;dashPattern=8 8;strokeColor=default;fontFamily=Helvetica;fontSize=12;fontColor=default;fillColor=default;" vertex="1" connectable="0" parent="fpQUTFpRcy_hL1QXhQL6-25">
          <mxGeometry x="0.6205" y="-1" relative="1" as="geometry">
            <mxPoint as="offset" />
          </mxGeometry>
        </mxCell>
        <mxCell id="fpQUTFpRcy_hL1QXhQL6-27" style="edgeStyle=orthogonalEdgeStyle;rounded=0;orthogonalLoop=1;jettySize=auto;html=1;exitX=1;exitY=0.5;exitDx=0;exitDy=0;fontFamily=Helvetica;fontSize=12;fontColor=default;entryX=0.684;entryY=1.007;entryDx=0;entryDy=0;entryPerimeter=0;" edge="1" parent="1" source="fpQUTFpRcy_hL1QXhQL6-1" target="fpQUTFpRcy_hL1QXhQL6-16">
          <mxGeometry relative="1" as="geometry">
            <mxPoint x="470" y="280" as="targetPoint" />
          </mxGeometry>
        </mxCell>
      </root>
    </mxGraphModel>
  </diagram>
  <diagram id="SnqzuBavTu8dVyhsPsdA" name="binary upload">
    <mxGraphModel dx="1434" dy="738" grid="1" gridSize="10" guides="1" tooltips="1" connect="1" arrows="1" fold="1" page="1" pageScale="1" pageWidth="850" pageHeight="1100" math="0" shadow="0">
      <root>
        <mxCell id="0" />
        <mxCell id="1" parent="0" />
        <mxCell id="FAi1Xt9_Flr8Va9FzJJN-1" value="/api/v2/catalog/binaries" style="rounded=0;whiteSpace=wrap;html=1;" vertex="1" parent="1">
          <mxGeometry x="50" y="90" width="260" height="50" as="geometry" />
        </mxCell>
        <mxCell id="FAi1Xt9_Flr8Va9FzJJN-2" value="/api/v2/catalog/binaries/{id}/chunks" style="rounded=0;whiteSpace=wrap;html=1;" vertex="1" parent="1">
          <mxGeometry x="50" y="190" width="260" height="50" as="geometry" />
        </mxCell>
        <mxCell id="FAi1Xt9_Flr8Va9FzJJN-3" value="/api/v2/catalog/binaries/{id}/chunks/{action}" style="rounded=0;whiteSpace=wrap;html=1;" vertex="1" parent="1">
          <mxGeometry x="50" y="280" width="260" height="50" as="geometry" />
        </mxCell>
        <mxCell id="FAi1Xt9_Flr8Va9FzJJN-4" value="create artifact,&lt;div&gt;generate upload id,&lt;div&gt;save upload id to artifact,&lt;br&gt;&lt;div&gt;return artifact id&lt;/div&gt;&lt;/div&gt;&lt;/div&gt;" style="rounded=0;whiteSpace=wrap;html=1;" vertex="1" parent="1">
          <mxGeometry x="380" y="70" width="360" height="90" as="geometry" />
        </mxCell>
        <mxCell id="FAi1Xt9_Flr8Va9FzJJN-6" value="artifact.NumberOfParts = req.ChunkedArtifactFile.TotalChunks" style="rounded=0;whiteSpace=wrap;html=1;" vertex="1" parent="1">
          <mxGeometry x="790" y="70" width="360" height="90" as="geometry" />
        </mxCell>
        <mxCell id="FAi1Xt9_Flr8Va9FzJJN-7" value="file, err := os.CreateTemp(&quot;&quot;, fmt.Sprintf(&quot;%s-part%d&quot;, cn.UploadID, cn.PartNumber))" style="rounded=0;whiteSpace=wrap;html=1;" vertex="1" parent="1">
          <mxGeometry x="790" y="170" width="360" height="90" as="geometry" />
        </mxCell>
      </root>
    </mxGraphModel>
  </diagram>
</mxfile>
